<svg width="29" height="29" viewBox="0 0 29 29" fill="none" xmlns="http://www.w3.org/2000/svg">
<g clip-path="url(#clip0)">
<path d="M22.6563 29H6.34375C4.84542 29 3.625 27.7808 3.625 26.2813V13.5938C3.625 12.0942 4.84542 10.875 6.34375 10.875H22.6563C24.1546 10.875 25.375 12.0942 25.375 13.5938V26.2813C25.375 27.7808 24.1546 29 22.6563 29ZM6.34375 12.6875C5.84471 12.6875 5.4375 13.0935 5.4375 13.5938V26.2813C5.4375 26.7815 5.84471 27.1875 6.34375 27.1875H22.6563C23.1553 27.1875 23.5625 26.7815 23.5625 26.2813V13.5938C23.5625 13.0935 23.1553 12.6875 22.6563 12.6875H6.34375Z" fill="black"/>
<path d="M20.8438 12.6875C20.3435 12.6875 19.9375 12.2815 19.9375 11.7813V7.25C19.9375 4.25213 17.4979 1.8125 14.5 1.8125C11.5021 1.8125 9.0625 4.25213 9.0625 7.25V11.7813C9.0625 12.2815 8.6565 12.6875 8.15625 12.6875C7.656 12.6875 7.25 12.2815 7.25 11.7813V7.25C7.25 3.25163 10.5016 0 14.5 0C18.4984 0 21.75 3.25163 21.75 7.25V11.7813C21.75 12.2815 21.344 12.6875 20.8438 12.6875Z" fill="black"/>
<path d="M14.5 20.5418C13.1672 20.5418 12.0833 19.458 12.0833 18.1252C12.0833 16.7924 13.1672 15.7085 14.5 15.7085C15.8328 15.7085 16.9166 16.7924 16.9166 18.1252C16.9166 19.458 15.8328 20.5418 14.5 20.5418ZM14.5 17.521C14.1677 17.521 13.8958 17.7917 13.8958 18.1252C13.8958 18.4587 14.1677 18.7293 14.5 18.7293C14.8323 18.7293 15.1041 18.4587 15.1041 18.1252C15.1041 17.7917 14.8323 17.521 14.5 17.521Z" fill="black"/>
<path d="M14.5 24.1667C13.9998 24.1667 13.5938 23.7607 13.5938 23.2604V19.9375C13.5938 19.4373 13.9998 19.0312 14.5 19.0312C15.0003 19.0312 15.4063 19.4373 15.4063 19.9375V23.2604C15.4063 23.7607 15.0003 24.1667 14.5 24.1667Z" fill="black"/>
</g>
<defs>
<clipPath id="clip0">
<rect width="29" height="29" fill="white"/>
</clipPath>
</defs>
</svg>
