<svg width="29" height="29" viewBox="0 0 29 29" fill="none" xmlns="http://www.w3.org/2000/svg">
<path d="M11.668 29H6.79688C3.04908 29 0 25.9509 0 22.2031V6.79688C0 3.04908 3.04908 0 6.79688 0H22.2031C25.9509 0 29 3.04908 29 6.79688V12.4609C29 13.0866 28.4928 13.5938 27.8672 13.5938C27.2415 13.5938 26.7344 13.0866 26.7344 12.4609V6.79688C26.7344 4.29834 24.7017 2.26562 22.2031 2.26562H6.79688C4.29834 2.26562 2.26562 4.29834 2.26562 6.79688V22.2031C2.26562 24.7017 4.29834 26.7344 6.79688 26.7344H11.668C12.2936 26.7344 12.8008 27.2415 12.8008 27.8672C12.8008 28.4928 12.2936 29 11.668 29ZM13.1973 7.92969C13.1973 6.05579 11.6727 4.53125 9.79883 4.53125C7.92493 4.53125 6.40039 6.05579 6.40039 7.92969C6.40039 9.80359 7.92493 11.3281 9.79883 11.3281C11.6727 11.3281 13.1973 9.80359 13.1973 7.92969ZM10.9316 7.92969C10.9316 8.55432 10.4235 9.0625 9.79883 9.0625C9.1742 9.0625 8.66602 8.55432 8.66602 7.92969C8.66602 7.30505 9.1742 6.79688 9.79883 6.79688C10.4235 6.79688 10.9316 7.30505 10.9316 7.92969ZM24.4688 10.9883C24.4688 10.3626 23.9616 9.85547 23.3359 9.85547H16.3125C15.6868 9.85547 15.1797 10.3626 15.1797 10.9883C15.1797 11.6139 15.6868 12.1211 16.3125 12.1211H23.3359C23.9616 12.1211 24.4688 11.6139 24.4688 10.9883ZM16.0859 18.918C16.0859 18.2923 15.5788 17.7852 14.9531 17.7852H6.68359C6.05794 17.7852 5.55078 18.2923 5.55078 18.918C5.55078 19.5436 6.05794 20.0508 6.68359 20.0508H14.9531C15.5788 20.0508 16.0859 19.5436 16.0859 18.918ZM11.5547 22.8828C11.5547 22.2572 11.0475 21.75 10.4219 21.75H6.68359C6.05794 21.75 5.55078 22.2572 5.55078 22.8828C5.55078 23.5085 6.05794 24.0156 6.68359 24.0156H10.4219C11.0475 24.0156 11.5547 23.5085 11.5547 22.8828ZM16.4213 28.978L19.6307 28.3365C21.2223 28.0184 22.6702 27.2436 23.8179 26.0959L27.7889 22.1249C28.5699 21.3439 29 20.3056 29 19.2012C29 18.0967 28.5699 17.0584 27.789 16.2774C27.008 15.4965 25.9697 15.0664 24.8652 15.0664C23.7608 15.0664 22.7225 15.4965 21.9415 16.2774L17.9705 20.2485C16.8228 21.3962 16.048 22.8441 15.7299 24.4357L15.0884 27.6452C15.0141 28.0165 15.1304 28.4004 15.3982 28.6683C15.6128 28.8828 15.9017 29 16.1992 29C16.273 29 16.3474 28.9928 16.4213 28.978ZM26.1869 17.8795C26.5399 18.2325 26.7344 18.7019 26.7344 19.2012C26.7344 19.7004 26.5399 20.1698 26.1869 20.5228L22.2159 24.4938C21.3856 25.3242 20.3381 25.8847 19.1867 26.1148L17.6431 26.4233L17.9516 24.8797C18.1818 23.7283 18.7422 22.6808 19.5726 21.8505L23.5436 17.8795C23.8966 17.5265 24.366 17.332 24.8652 17.332C25.3645 17.332 25.8339 17.5265 26.1869 17.8795V17.8795ZM23.3359 8.15625H16.3125C15.6868 8.15625 15.1797 7.64909 15.1797 7.02344C15.1797 6.39779 15.6868 5.89062 16.3125 5.89062H23.3359C23.9616 5.89062 24.4688 6.39779 24.4688 7.02344C24.4688 7.64909 23.9616 8.15625 23.3359 8.15625ZM13.6386 15.4891C14.0597 15.0264 14.026 14.3099 13.5633 13.8888C12.6319 13.0411 11.4227 12.5742 10.1585 12.5742H9.43916C8.17494 12.5742 6.96572 13.0411 6.03438 13.8888C5.57168 14.3099 5.53798 15.0264 5.9591 15.4891C6.38017 15.9517 7.09667 15.9855 7.55937 15.5643C8.07271 15.0972 8.74033 14.8398 9.43916 14.8398H10.1584C10.8573 14.8398 11.525 15.0972 12.0382 15.5643C12.2553 15.7619 12.5282 15.8594 12.8004 15.8594C13.1083 15.8594 13.415 15.7347 13.6386 15.4891V15.4891Z" fill="black"/>
</svg>
