<svg width="32" height="35" viewBox="0 0 32 35" fill="none" xmlns="http://www.w3.org/2000/svg">
<g clip-path="url(#clip0)">
<path d="M31.6597 14.2231L16.4912 2.07586C16.1987 1.84166 15.8013 1.84166 15.5089 2.07586L0.340318 14.2231C-0.0301819 14.5199 -0.110682 15.0889 0.160631 15.4941C0.431943 15.8994 0.952256 15.9873 1.32269 15.6907L16 3.93667L30.6773 15.6906C30.8253 15.8092 30.9973 15.8663 31.1678 15.8663C31.4238 15.8663 31.6764 15.7374 31.8393 15.494C32.1107 15.0889 32.0302 14.5199 31.6597 14.2231Z" fill="#55CB95"/>
<path d="M27.6404 15.8965C27.1813 15.8965 26.8089 16.3036 26.8089 16.8059V31.2809H20.1576V23.3795C20.1576 20.8721 18.2924 18.8322 16.0001 18.8322C13.7077 18.8322 11.8426 20.8722 11.8426 23.3795V31.281H5.19113V16.8059C5.19113 16.3037 4.81882 15.8966 4.3597 15.8966C3.90057 15.8966 3.52826 16.3037 3.52826 16.8059V32.1904C3.52826 32.6926 3.90057 33.0998 4.3597 33.0998H12.674C13.1113 33.0998 13.4691 32.7303 13.5022 32.2612C13.5042 32.24 13.5054 32.2167 13.5054 32.1904V23.3796C13.5054 21.8751 14.6245 20.6511 16.0001 20.6511C17.3756 20.6511 18.4947 21.8751 18.4947 23.3796V32.1904C18.4947 32.2166 18.4959 32.2394 18.4979 32.2604C18.5307 32.7298 18.8886 33.0998 19.3261 33.0998H27.6405C28.0996 33.0998 28.4719 32.6926 28.4719 32.1904V16.8059C28.4718 16.3036 28.0996 15.8965 27.6404 15.8965Z" fill="#55CB95"/>
</g>
<defs>
<clipPath id="clip0">
<rect width="32" height="35" fill="white"/>
</clipPath>
</defs>
</svg>
