<svg width="29" height="29" viewBox="0 0 29 29" fill="none" xmlns="http://www.w3.org/2000/svg">
<g clip-path="url(#clip0)">
<path d="M28.9078 12.8299C28.8462 12.6825 28.758 12.5484 28.6456 12.436L25.0218 8.81218C24.5493 8.34093 23.7857 8.34093 23.3132 8.81218C22.8408 9.28462 22.8408 10.0495 23.3132 10.5207L24.8756 12.0831H18.1258C17.4576 12.0831 16.9175 12.6244 16.9175 13.2914C16.9175 13.9584 17.4576 14.4997 18.1258 14.4997H24.8755L23.3132 16.0621C22.8407 16.5346 22.8407 17.2994 23.3132 17.7707C23.5488 18.0075 23.8581 18.1247 24.1675 18.1247C24.4768 18.1247 24.7862 18.0076 25.0218 17.7707L28.6456 14.1469C28.758 14.0357 28.8462 13.9016 28.9078 13.7529C29.0298 13.4582 29.0298 13.1247 28.9078 12.8299Z" fill="black"/>
<path d="M20.5424 16.9167C19.8742 16.9167 19.334 17.458 19.334 18.125V24.1667H14.5007V4.83331C14.5007 4.30044 14.1503 3.82919 13.6392 3.67575L9.44261 2.41669H19.334V8.45837C19.334 9.12537 19.8742 9.66669 20.5424 9.66669C21.2105 9.66669 21.7507 9.12537 21.7507 8.45837V1.20837C21.7507 0.541314 21.2105 0 20.5424 0H1.20905C1.16555 0 1.12686 0.018125 1.08461 0.0229395C1.0278 0.029 0.975857 0.0386289 0.921482 0.0519395C0.794607 0.0845645 0.679797 0.134125 0.572293 0.201754C0.545728 0.218689 0.513104 0.219879 0.487729 0.239193C0.477986 0.2465 0.474361 0.259811 0.464676 0.267061C0.332986 0.370939 0.223047 0.497814 0.143297 0.648875C0.126361 0.6815 0.122736 0.716561 0.109482 0.750375C0.0707969 0.842189 0.028543 0.931625 0.014043 1.03312C0.00798242 1.06937 0.0188574 1.10319 0.017668 1.13825C0.0164785 1.16244 0.000732422 1.18419 0.000732422 1.20831V25.375C0.000732422 25.9514 0.407922 26.4468 0.972232 26.5592L13.0555 28.9759C13.1341 28.9928 13.2139 29.0001 13.2924 29.0001C13.569 29.0001 13.8409 28.9046 14.0584 28.7257C14.3375 28.4962 14.5007 28.1542 14.5007 27.7917V26.5834H20.5424C21.2105 26.5834 21.7507 26.0421 21.7507 25.3751V18.125C21.7507 17.458 21.2105 16.9167 20.5424 16.9167Z" fill="black"/>
</g>
<defs>
<clipPath id="clip0">
<rect width="29" height="29" fill="white"/>
</clipPath>
</defs>
</svg>
