<svg width="32" height="35" viewBox="0 0 32 35" fill="none" xmlns="http://www.w3.org/2000/svg">
<g clip-path="url(#clip0)">
<path d="M29.4294 14.6181C29.4294 13.7892 29.0936 13.045 28.5635 12.538C29.0936 12.031 29.4294 11.2868 29.4294 10.458C29.4294 8.93409 28.2958 7.69426 26.9026 7.69426H26.3599C26.0597 7.69426 25.7742 7.76426 25.5157 7.88929V2.61687C25.5158 1.17394 24.4425 0 23.1232 0H12.5988C11.2796 0 10.2062 1.17394 10.2062 2.61687V8.09396C9.57312 7.32512 8.72868 6.78542 7.73899 6.57187C6.92993 6.39837 6.15749 7.10213 6.15749 8.00078V16.3869C6.15749 17.4439 5.98556 18.4747 5.64637 19.4508C5.11112 20.9915 4.47606 23.3233 4.43862 25.7905L2.69356 28.3638C2.61374 28.4816 2.57056 28.6244 2.57056 28.771V34.3164C2.57056 34.694 2.85043 35 3.19556 35H13.0062C13.1906 35 13.3656 34.911 13.4843 34.7567L15.6274 31.9731C16.6482 31.8448 20.2906 31.2345 22.2957 28.8981H23.1232C24.4425 28.8981 25.5158 27.7242 25.5158 26.2812V25.5069C25.7742 25.632 26.0597 25.702 26.36 25.702H26.9026C28.2959 25.702 29.4294 24.4622 29.4294 22.9383C29.4294 22.1094 29.0936 21.3652 28.5636 20.8582C29.0936 20.3513 29.4294 19.607 29.4294 18.7781C29.4294 17.9493 29.0936 17.205 28.5636 16.6981C29.0936 16.1912 29.4294 15.447 29.4294 14.6181V14.6181ZM26.36 9.06151H26.9026C27.6067 9.06151 28.1794 9.68796 28.1794 10.458C28.1794 11.228 27.6067 11.8545 26.9026 11.8545H26.36C25.8946 11.8545 25.5158 11.4402 25.5158 10.9311V9.98491C25.5158 9.4757 25.8946 9.06151 26.36 9.06151V9.06151ZM19.0377 1.36719V1.51833C19.0377 2.22455 18.5124 2.79911 17.8667 2.79911C17.2211 2.79911 16.6958 2.22455 16.6958 1.51833V1.36719H19.0377ZM24.2658 26.2813C24.2658 26.9704 23.7532 27.531 23.1232 27.531H12.5988C11.9688 27.531 11.4562 26.9704 11.4562 26.2813V22.6838C11.4562 22.3063 11.1764 22.0002 10.8312 22.0002C10.4861 22.0002 10.2062 22.3063 10.2062 22.6838V26.2813V26.2814C10.2062 27.7244 11.2796 28.8982 12.5987 28.8982H20.3358C18.2409 30.3607 15.299 30.6363 15.2635 30.6394C15.0967 30.6538 14.9422 30.7406 14.8344 30.8806L12.7154 33.6328H3.82062V28.997L5.56393 26.4262C5.64374 26.3084 5.68693 26.1656 5.68693 26.019C5.68693 23.6752 6.30031 21.4176 6.81493 19.9365C7.20818 18.8048 7.40756 17.6105 7.40756 16.387V8.00078C7.40756 7.94965 7.44999 7.90323 7.49781 7.91335C9.11781 8.26287 10.2062 9.84717 10.2062 11.8556V16.6685C10.2062 17.0461 10.4861 17.3521 10.8312 17.3521C11.1764 17.3521 11.4562 17.0461 11.4562 16.6685V11.8556V2.61687C11.4562 1.9278 11.9688 1.36719 12.5988 1.36719H15.4457V1.51833C15.4457 2.97842 16.5318 4.1663 17.8667 4.1663C19.2016 4.1663 20.2877 2.97842 20.2877 1.51833V1.36719H23.1232C23.7532 1.36719 24.2657 1.9278 24.2657 2.61687V26.2813H24.2658ZM28.1794 22.9384C28.1794 23.7085 27.6066 24.3349 26.9026 24.3349H26.3599C25.8945 24.3349 25.5157 23.9207 25.5157 23.4116V22.4654C25.5157 21.9562 25.8945 21.542 26.3599 21.542H26.9026C27.6066 21.5419 28.1794 22.1684 28.1794 22.9384ZM28.1794 18.7783C28.1794 19.5483 27.6066 20.1747 26.9026 20.1747H26.3599C25.8945 20.1747 25.5157 19.7604 25.5157 19.2514V18.3051C25.5157 17.796 25.8945 17.3818 26.3599 17.3818H26.9026C27.6066 17.3818 28.1794 18.0083 28.1794 18.7783ZM26.36 16.0146C25.8946 16.0146 25.5158 15.6004 25.5158 15.0913V14.1451C25.5158 13.6359 25.8946 13.2217 26.36 13.2217H26.9026C27.6067 13.2217 28.1794 13.8482 28.1794 14.6182C28.1794 15.3882 27.6067 16.0147 26.9026 16.0147H26.36V16.0146Z" fill="#55CB95"/>
<path d="M19.3504 19.5883H16.3649C15.1732 19.5883 14.2037 20.6487 14.2037 21.9521C14.2037 23.2555 15.1732 24.3159 16.3649 24.3159H19.3504C20.5421 24.3159 21.5116 23.2555 21.5116 21.9521C21.5116 20.6487 20.5422 19.5883 19.3504 19.5883ZM19.3504 22.9487H16.3649C15.8624 22.9487 15.4537 22.5016 15.4537 21.9521C15.4537 21.4025 15.8624 20.9554 16.3649 20.9554H19.3504C19.8529 20.9554 20.2616 21.4025 20.2616 21.9521C20.2616 22.5016 19.8529 22.9487 19.3504 22.9487Z" fill="#55CB95"/>
<path d="M22.1685 9.39279C22.1348 9.04512 21.8666 8.78132 21.547 8.78132H19.9082V8.27607C19.9082 7.04485 18.9924 6.04318 17.8667 6.04318C16.741 6.04318 15.8253 7.04485 15.8253 8.27607V8.78132H14.1683C13.8487 8.78132 13.5805 9.04512 13.5468 9.39279L12.9218 15.8382C12.9031 16.031 12.9601 16.2233 13.0787 16.3675C13.1972 16.5116 13.3661 16.5939 13.5434 16.5939H22.1721C22.3493 16.5939 22.5182 16.5116 22.6368 16.3675C22.7553 16.2234 22.8123 16.031 22.7936 15.8382L22.1685 9.39279ZM17.0753 8.27607C17.0753 7.79872 17.4303 7.41037 17.8667 7.41037C18.3031 7.41037 18.6582 7.79872 18.6582 8.27607V8.78132H17.0753V8.27607ZM14.2381 15.2266L14.7306 10.1484H15.8253V10.8281C15.8253 11.2057 16.1052 11.5117 16.4503 11.5117C16.7954 11.5117 17.0753 11.2057 17.0753 10.8281V10.1484H18.6583V10.8281C18.6583 11.2057 18.9381 11.5117 19.2833 11.5117C19.6284 11.5117 19.9083 11.2057 19.9083 10.8281V10.1484H20.9849L21.4773 15.2266H14.2381Z" fill="#55CB95"/>
<path d="M11.4144 19.3744C11.2853 19.03 10.9119 18.8621 10.5981 19.0046C10.2836 19.1474 10.1296 19.5529 10.26 19.8974C10.3902 20.2412 10.7619 20.4099 11.0763 20.2672C11.3901 20.1247 11.5453 19.7182 11.4144 19.3744Z" fill="#55CB95"/>
</g>
<defs>
<clipPath id="clip0">
<rect width="32" height="35" fill="white"/>
</clipPath>
</defs>
</svg>
