<svg width="58" height="60" viewBox="0 0 58 60" fill="none" xmlns="http://www.w3.org/2000/svg">
<path d="M5.47943 53.5961L18.1762 58.485C19.2545 58.9002 20.396 59.1128 21.5466 59.1128H34.6317C36.4629 59.1128 38.2563 58.5744 39.8031 57.5605L56.1868 46.8209C57.2677 45.8279 57.4681 44.1593 56.6549 42.923C55.7651 41.5703 54.2932 41.3351 52.6735 42.1274L36.7224 49.393L36.7412 46.7157C36.5299 44.5182 34.8944 42.7547 32.7808 42.4453L23.067 41.2883C20.8262 40.9603 19.7065 40.1835 17.7531 39.0014C15.0861 37.3875 12.0521 36.5368 8.96226 36.5368H5.47943V53.5961Z" fill="#FFDDCE"/>
<path d="M21.5466 59.1128H34.6317C36.4629 59.1128 38.2563 58.5744 39.8031 57.5605L56.1868 46.8209C57.2677 45.8279 57.4681 44.1593 56.6549 42.923C55.7651 41.5703 54.2932 41.3351 52.6735 42.1274L49.979 43.3547C49.979 45.3899 48.9719 47.2834 47.3101 48.3727L39.803 53.2936C38.2562 54.3075 36.4628 54.8459 34.6316 54.8459H21.5464C20.3958 54.8459 19.2544 54.6333 18.1761 54.2181L5.47943 49.3291V53.5961L18.1762 58.485C19.2545 58.9001 20.396 59.1128 21.5466 59.1128V59.1128Z" fill="#FFCBBE"/>
<path d="M35.5501 43.9577L35.5497 44.0223L35.5914 44.0036C35.5779 43.9881 35.5639 43.9731 35.5501 43.9577V43.9577Z" fill="#F5DBCC"/>
<path d="M8.21142 56.2123C8.21142 57.1652 7.46468 57.9377 6.54347 57.9377H2.51768C1.59648 57.9377 0.849731 57.1652 0.849731 56.2123V35.0834C0.849731 34.1304 1.59648 33.3579 2.51768 33.3579H6.54347C7.46468 33.3579 8.21142 34.1304 8.21142 35.0834V56.2123Z" fill="#407093"/>
<path d="M19.5641 3.9787C22.2325 2.03174 25.4878 0.888229 29.0013 0.888229C38.0543 0.888229 45.3933 8.48022 45.3933 17.8454C45.3933 27.2105 38.0543 34.8025 29.0013 34.8025C19.9484 34.8025 12.6094 27.2105 12.6094 17.8454C12.6094 13.6048 14.1142 9.7278 16.6012 6.75464" fill="#E28086"/>
<path d="M29.0014 0.887222C27.7691 0.887222 26.5689 1.0289 25.4143 1.29562C32.7419 2.98804 38.2192 9.75398 38.2192 17.8445C38.2192 25.935 32.7418 32.7009 25.4143 34.3934C26.5689 34.6601 27.7691 34.8018 29.0014 34.8018C38.0543 34.8018 45.3933 27.2098 45.3933 17.8446C45.3933 8.47945 38.0543 0.887222 29.0014 0.887222V0.887222Z" fill="#DD636E"/>
<path d="M35.0406 19.9137L35.5308 10.4877C35.544 10.2322 35.3401 10.0213 35.0932 10.035L25.9814 10.5421C25.6222 10.5621 25.4553 11.0126 25.7097 11.2758L27.718 13.3533C27.8803 13.5212 27.8803 13.7937 27.718 13.9616L20.8785 21.0369C20.7162 21.2048 20.7162 21.4773 20.8785 21.6452L24.3074 25.1924C24.4698 25.3603 24.7331 25.3603 24.8955 25.1924L31.7349 18.1171C31.8974 17.9491 32.1607 17.9491 32.323 18.1171L34.3312 20.1946C34.5858 20.4579 35.0214 20.2853 35.0406 19.9137V19.9137Z" fill="#F4FBFF"/>
<path d="M20.0539 4.69605C22.6809 2.77933 25.7748 1.76613 29.0014 1.76613C37.5715 1.76613 44.5437 8.97879 44.5437 17.8444C44.5437 21.5304 43.3709 24.9974 41.1522 27.8709C40.8593 28.2502 40.9191 28.8033 41.2858 29.1062C41.4424 29.2356 41.6295 29.2985 41.8155 29.2985C42.065 29.2985 42.3122 29.1854 42.48 28.9681C44.9418 25.7798 46.243 21.9333 46.243 17.8445C46.243 8.00965 38.5084 0.00831604 29.0015 0.00831604C25.4223 0.00831604 21.9896 1.13261 19.0746 3.25957C18.6911 3.53941 18.5994 4.08773 18.87 4.48441C19.1403 4.88109 19.6705 4.97578 20.0539 4.69605V4.69605Z" fill="black"/>
<path d="M29.0013 35.6806C32.8224 35.6806 36.4423 34.414 39.4695 32.018C39.8421 31.723 39.9132 31.1713 39.6279 30.7857C39.3429 30.4003 38.8099 30.3267 38.4369 30.6218C35.7087 32.7812 32.446 33.9226 29.0013 33.9226C20.4313 33.9226 13.459 26.71 13.459 17.8444C13.459 13.9808 14.8031 10.2462 17.2438 7.32868C17.5509 6.96165 17.5121 6.40653 17.1572 6.08883C16.8024 5.77125 16.2658 5.81133 15.9587 6.17836C13.2509 9.41532 11.7597 13.5584 11.7597 17.8444C11.7598 27.6793 19.4943 35.6806 29.0013 35.6806V35.6806Z" fill="black"/>
<path d="M20.2778 22.2669L23.7068 25.8142C24.2001 26.3244 25.0029 26.3244 25.4963 25.8141L32.0291 19.056L33.7306 20.8161C34.5022 21.6148 35.8304 21.0905 35.8891 19.9609L36.3792 10.5353C36.3986 10.1646 36.2643 9.80145 36.0106 9.53906C35.757 9.27668 35.4063 9.13781 35.0476 9.15738L25.936 9.66446C24.846 9.72504 24.3357 11.0973 25.109 11.8973L26.8105 13.6576L20.2779 20.4156C19.7834 20.9269 19.783 21.7553 20.2778 22.2669V22.2669ZM28.3187 14.5833C28.5579 14.336 28.6895 14.0073 28.6895 13.6575C28.6895 13.3078 28.5579 12.9791 28.3188 12.7318L26.9983 11.3658L34.6563 10.9396L34.2443 18.8617L32.9238 17.4955C32.4304 16.9853 31.6278 16.9853 31.1341 17.4956L24.6014 24.2537L21.786 21.3412L28.3187 14.5833Z" fill="black"/>
<path d="M57.3571 42.4284C56.2484 40.7428 54.3658 40.3317 52.321 41.3276L37.5815 48.0413L37.5908 46.7222C37.6051 44.7154 35.828 42.0036 32.8998 41.5752C32.8926 41.5741 32.8852 41.5731 32.878 41.5723L23.1754 40.4166C21.1069 40.1119 20.0997 39.403 18.1821 38.2429C15.4162 36.5691 12.2644 35.6779 9.06125 35.6598V35.0835C9.06125 33.6473 7.93184 32.479 6.54358 32.479H2.51768C1.12941 32.479 0 33.6472 0 35.0834V56.2122C0 57.6483 1.12941 58.8166 2.51768 58.8166H6.54346C7.93173 58.8166 9.06114 57.6483 9.06114 56.2122V55.9129L17.8799 59.3085C19.057 59.7618 20.2906 59.9916 21.5465 59.9916H34.6317C36.6269 59.9916 38.5724 59.4076 40.2578 58.3028L56.6415 47.5631C56.6802 47.5378 56.7167 47.5093 56.751 47.4778C58.1467 46.1958 58.4074 44.0249 57.3571 42.4284V42.4284ZM55.6688 46.1198L39.3481 56.8181C37.9353 57.7444 36.3043 58.2339 34.6316 58.2339H21.5464C20.4936 58.2339 19.4593 58.0412 18.4725 57.6613L9.06103 54.0374V44.2531C9.06103 43.7677 8.68063 43.3741 8.21142 43.3741C7.74221 43.3741 7.36181 43.7677 7.36181 44.2531V56.2124C7.36181 56.6791 6.99466 57.059 6.54346 57.059H2.51768C2.06648 57.059 1.69933 56.6791 1.69933 56.2124V35.0834C1.69933 34.6166 2.06648 34.2368 2.51768 34.2368H6.54346C6.99466 34.2368 7.36181 34.6166 7.36181 35.0834V40.1439C7.36181 40.6293 7.74221 41.0228 8.21142 41.0228C8.68063 41.0228 9.06103 40.6293 9.06103 40.1439V37.4176C11.9631 37.4357 14.8181 38.2438 17.3239 39.7602C19.3331 40.976 20.5488 41.8075 22.9478 42.1587C22.9551 42.1597 22.9623 42.1607 22.9697 42.1615L32.672 43.3171C34.3839 43.5724 35.7013 44.9829 35.8911 46.7584L35.8788 48.5139H26.8038C26.3346 48.5139 25.9542 48.9074 25.9542 49.3928C25.9542 49.8782 26.3346 50.2717 26.8038 50.2717H36.7223C36.8298 50.2717 36.9525 50.2477 37.0614 50.1984C37.0625 50.198 37.0636 50.1977 37.0646 50.1973L53.0157 42.9316C53.0228 42.9285 53.0297 42.9252 53.0366 42.9218C53.9305 42.4846 55.1616 42.2156 55.9523 43.4173C56.5116 44.2677 56.3872 45.4175 55.6688 46.1198V46.1198Z" fill="black"/>
</svg>
