<svg width="30" height="34" viewBox="0 0 30 34" fill="none" xmlns="http://www.w3.org/2000/svg">
<path d="M14.7862 16.3779C16.7715 16.3779 18.4904 15.5709 19.8953 13.9787C21.2997 12.3868 22.012 10.439 22.012 8.18871C22.012 5.9392 21.3 3.99111 19.8951 2.39866C18.4902 0.80699 16.7713 0 14.7862 0C12.8007 0 11.082 0.80699 9.67735 2.39892C8.27271 3.99085 7.56042 5.93894 7.56042 8.18871C7.56042 10.439 8.27271 12.3871 9.67735 13.979C11.0825 15.5707 12.8014 16.3779 14.7862 16.3779V16.3779ZM10.9206 3.80772C11.9984 2.58621 13.2628 1.99244 14.7862 1.99244C16.3094 1.99244 17.574 2.58621 18.652 3.80772C19.7298 5.02949 20.254 6.46266 20.254 8.18871C20.254 9.91526 19.7298 11.3482 18.652 12.57C17.574 13.7917 16.3094 14.3855 14.7862 14.3855C13.2632 14.3855 11.9989 13.7915 10.9206 12.57C9.84261 11.3484 9.31847 9.91526 9.31847 8.18871C9.31847 6.46266 9.84261 5.02949 10.9206 3.80772Z" fill="#757575"/>
<path d="M27.4294 26.1443C27.3889 25.4818 27.307 24.7591 27.1864 23.996C27.0646 23.2271 26.9078 22.5003 26.7201 21.836C26.526 21.1493 26.2626 20.4713 25.9364 19.8215C25.5984 19.147 25.201 18.5598 24.7552 18.0765C24.2889 17.5709 23.7181 17.1644 23.058 16.8679C22.4002 16.573 21.6712 16.4236 20.8914 16.4236C20.5852 16.4236 20.289 16.566 19.717 16.9881C19.365 17.2482 18.9532 17.5491 18.4937 17.8819C18.1007 18.1657 17.5683 18.4316 16.9107 18.6723C16.2691 18.9076 15.6178 19.0269 14.9746 19.0269C14.3319 19.0269 13.6805 18.9076 13.0385 18.6723C12.3816 18.4319 11.849 18.166 11.4567 17.8822C11.0014 17.5525 10.5894 17.2516 10.2322 16.9878C9.66064 16.5657 9.36447 16.4233 9.05823 16.4233C8.2782 16.4233 7.54944 16.573 6.89186 16.8682C6.23222 17.1642 5.66116 17.5707 5.19447 18.0767C4.74861 18.5603 4.35127 19.1473 4.01344 19.8215C3.68774 20.4713 3.42407 21.1491 3.22998 21.8362C3.04253 22.5005 2.88574 23.2271 2.76398 23.996C2.64313 24.7581 2.56142 25.481 2.5209 26.1451C2.48108 26.7944 2.46094 27.4701 2.46094 28.1528C2.46094 29.9277 2.95876 31.3645 3.94043 32.4241C4.90997 33.4697 6.19263 34 7.75291 34H22.1981C23.7579 34 25.0406 33.4697 26.0104 32.4241C26.9923 31.3652 27.4901 29.9279 27.4901 28.1526C27.4899 27.4675 27.4695 26.7918 27.4294 26.1443V26.1443ZM24.7982 30.9806C24.1576 31.6716 23.307 32.0075 22.1979 32.0075H7.75291C6.64352 32.0075 5.793 31.6716 5.15259 30.9808C4.52431 30.303 4.21898 29.3777 4.21898 28.1528C4.21898 27.5158 4.23752 26.8867 4.2746 26.2828C4.31076 25.6904 4.38469 25.0395 4.49432 24.348C4.60258 23.665 4.74037 23.024 4.90425 22.4437C5.06149 21.8873 5.27596 21.3364 5.54192 20.8056C5.79575 20.2998 6.0878 19.8658 6.41006 19.5162C6.7115 19.1891 7.09145 18.9214 7.53914 18.7206C7.95319 18.5348 8.4185 18.4332 8.92365 18.4179C8.98521 18.455 9.09485 18.5258 9.27246 18.657C9.63387 18.9239 10.0504 19.2285 10.5109 19.5618C11.03 19.9369 11.6988 20.2757 12.4979 20.568C13.3147 20.8674 14.1479 21.0194 14.9748 21.0194C15.8018 21.0194 16.6351 20.8674 17.4516 20.5683C18.2513 20.2754 18.9198 19.9369 19.4396 19.5613C19.9109 19.2199 20.3158 18.9242 20.6772 18.657C20.8548 18.526 20.9644 18.455 21.026 18.4179C21.5314 18.4332 21.9967 18.5348 22.411 18.7206C22.8584 18.9214 23.2384 19.1893 23.5398 19.5162C23.8621 19.8656 24.1541 20.2995 24.408 20.8059C24.6741 21.3364 24.8888 21.8876 25.0459 22.4435C25.21 23.0245 25.348 23.6652 25.456 24.3477C25.5654 25.0406 25.6396 25.6917 25.6757 26.2831V26.2836C25.713 26.8852 25.7318 27.5139 25.732 28.1528C25.7318 29.378 25.4265 30.303 24.7982 30.9806V30.9806Z" fill="#757575"/>
</svg>
